<svg id="Layer_2" data-name="Layer 2" xmlns="http://www.w3.org/2000/svg" viewBox="0 0 16 482.97"><defs><style>.cls-1{fill:none;stroke:#000;stroke-miterlimit:10;}</style></defs><title>Oar</title><g id="Oar"><path class="cls-1" d="M8.36,74.34,7.68,317l-.8.67V339l-3,.58,0,2.65,2.76.34.13,8.09.77.84s-.41,58.72-.41,60.13S8.46,422,8.46,422L8.4,451.77l.85.92s0,14.91-.05,15.19-.44.59-.44.74,0,11.65,0,15.54A2.66,2.66,0,0,0,11.5,487a2.49,2.49,0,0,0,2.25-2.28c.2-4.1.11-16.36,0-16.62s-.64-.38-.62-.59c0-.37.19-15.24.19-15.24l.77-.6L14,421.32a70.52,70.52,0,0,0,1.21-9.05c0-2.83-.22-61.09-.22-61.09l.6-.75.07-7.88,3.11-.42-.14-2.58-2.92-.69,0-20.5-1-1.1L13.83,74.85S13.2,13.13,5.75,5.36a1.2,1.2,0,0,0-1.95.89c0,1,4,7.63,4.74,32.66C8.55,39.31,8.36,74.34,8.36,74.34Z" transform="translate(-3.3 -4.57)"/><line class="cls-1" x1="5.9" y1="463.31" x2="10.17" y2="463.3"/><line class="cls-1" x1="5.96" y1="448.12" x2="9.97" y2="447.88"/><line class="cls-1" x1="5.11" y1="417.04" x2="10.71" y2="416.85"/><line class="cls-1" x1="4.23" y1="346.94" x2="11.69" y2="346.61"/><line class="cls-1" x1="3.35" y1="338.05" x2="12.36" y2="337.98"/><line class="cls-1" x1="3.58" y1="334.44" x2="12.41" y2="334.29"/><line class="cls-1" x1="4.39" y1="312.45" x2="11.41" y2="312.69"/><line class="cls-1" x1="5.07" y1="69.77" x2="10.52" y2="69.88"/></g></svg>