<svg id="Layer_2" data-name="Layer 2" xmlns="http://www.w3.org/2000/svg" viewBox="0 0 346.43 10508.19"><defs><style>.cls-1{fill:none;stroke:#000;stroke-miterlimit:10;stroke-width:20px;}</style></defs>
<title>Oar</title><g id="Oar"><path class="cls-1" d="M 185.23 1508.34 l -14.83 5281 L 152.94 6804 L 149 7266 L 147.24 7345.68 l 2.86 176 l 16.86 18.2 s -9 1277.76 -8.95 1308.54 s 29.43 225 29.43 225 L 186 9721.66 l 18.52 20.09 s -0.24 324.37 -1.21 330.46 c -0.52 3.28 -9.44 12.76 -9.47 16.09 c -0.05 5.51 0.3 253.46 0.69 338.24 c 0.1 21.52 10.35 62.77 59 62.68 c 30.78 0 47.93 -32.22 48.79 -49.59 c 4.38 -89.32 2.51 -356.12 0.19 -361.82 c -1.75 -4.3 -13.77 -8.2 -13.45 -12.83 c 0.56 -8 4.09 -331.56 4.09 -331.56 l 16.78 -13 l -2 -661.47 s 26.29 -135.41 26.18 -197 s -4.77 -1329.18 -4.77 -1329.18 l 13.06 -16.38 L 344 7344.88 L 345 7264.71 l -0.89 -446.08 l -20.88 -24.07 l -19.17 -5275 S 290.48 176.45 128.34 7.29 C 114.24 -7.42 85.76 5.76 85.82 26.57 c 0.06 21.67 87.31 166.2 103.13 710.92 C 189.2 746.1 185.23 1508.34 185.23 1508.34 Z" transform="translate(-75.82 8.96)"/>
<line class="cls-1" x1="127.52" y1="10081.17" x2="220.38" y2="10081.02"/>
<line class="cls-1" x1="128.73" y1="9750.72" x2="216.04" y2="9745.44"/>
<line class="cls-1" x1="110.38" y1="9074.47" x2="232.12" y2="9070.25"/>
<line class="cls-1" x1="91.1" y1="7548.84" x2="253.52" y2="7541.79"/>
<!-- <line class="cls-1" x1="72.12" y1="7355.46" x2="268.17" y2="7353.85"/> -->
<!-- <line class="cls-1" x1="77.08" y1="7276.8" x2="269.2" y2="7273.68"/> -->
<line class="cls-1" x1="94.59" y1="6798.33" x2="247.44" y2="6803.53"/>
<line class="cls-1" x1="109.42" y1="1517.3" x2="228.15" y2="1519.89"/></g></svg>