<svg id="Layer_2" data-name="Layer 2" xmlns="http://www.w3.org/2000/svg" viewBox="0 0 346.43 10508.19"><defs><style>.cls-1{fill:none;stroke:#000;stroke-miterlimit:10;stroke-width:20px;}</style></defs><title>Oar</title><g id="Oar"><path class="cls-1" d="M185.23,1508.34l-14.83,5281L152.94,6804l0,463.82L88,7280.57l-.84,57.5,60.08,7.61,2.86,176,16.86,18.2s-9,1277.76-8.95,1308.54,29.43,225,29.43,225L186,9721.66l18.52,20.09s-.24,324.37-1.21,330.46c-.52,3.28-9.44,12.76-9.47,16.09-.05,5.51.3,253.46.69,338.24.1,21.52,10.35,62.77,59,62.68,30.78,0,47.93-32.22,48.79-49.59,4.38-89.32,2.51-356.12.19-361.82-1.75-4.3-13.77-8.2-13.45-12.83.56-8,4.09-331.56,4.09-331.56l16.78-13-2-661.47s26.29-135.41,26.18-197-4.77-1329.18-4.77-1329.18l13.06-16.38L344,7344.88l67.76-9-3.13-56.32L345,7264.71l-.89-446.08-20.88-24.07-19.17-5275S290.48,176.45,128.34,7.29C114.24-7.42,85.76,5.76,85.82,26.57c.06,21.67,87.31,166.2,103.13,710.92C189.2,746.1,185.23,1508.34,185.23,1508.34Z" transform="translate(-75.82 8.96)"/><line class="cls-1" x1="127.52" y1="10081.17" x2="220.38" y2="10081.02"/><line class="cls-1" x1="128.73" y1="9750.72" x2="216.04" y2="9745.44"/><line class="cls-1" x1="110.38" y1="9074.47" x2="232.12" y2="9070.25"/><line class="cls-1" x1="91.1" y1="7548.84" x2="253.52" y2="7541.79"/><line class="cls-1" x1="72.12" y1="7355.46" x2="268.17" y2="7353.85"/><line class="cls-1" x1="77.08" y1="7276.8" x2="269.2" y2="7273.68"/><line class="cls-1" x1="94.59" y1="6798.33" x2="247.44" y2="6803.53"/><line class="cls-1" x1="109.42" y1="1517.3" x2="228.15" y2="1519.89"/></g></svg>