<?xml version="1.0" encoding="UTF-8" standalone="no"?>
<svg
   id="Layer_2"
   data-name="Layer 2"
   viewBox="0 0 346.43 10508.19"
   version="1.1"
   xmlns="http://www.w3.org/2000/svg"
   xmlns:svg="http://www.w3.org/2000/svg">
  <defs
     id="defs1">
    <style
       id="style1">.cls-1{fill:none;stroke:#000;stroke-miterlimit:10;stroke-width:20px;}</style>
  </defs>
  <title
     id="title1">Oar</title>
  <g
     id="Oar">
    <line
       class="cls-1"
       x1="127.52"
       y1="10081.17"
       x2="220.38"
       y2="10081.02"
       id="line1" />
    <line
       class="cls-1"
       x1="128.73"
       y1="9750.7197"
       x2="216.03999"
       y2="9745.4404"
       id="line2" />
    <line
       class="cls-1"
       x1="110.38"
       y1="9074.4697"
       x2="232.12"
       y2="9070.25"
       id="line3" />
    <line
       class="cls-1"
       x1="91.099998"
       y1="7548.8398"
       x2="253.52"
       y2="7541.79"
       id="line4" />
    <!-- <line class="cls-1" x1="72.12" y1="7355.46" x2="268.17" y2="7353.85"/> -->
    <!-- <line class="cls-1" x1="77.08" y1="7276.8" x2="269.2" y2="7273.68"/> -->
    <line
       class="cls-1"
       x1="94.589996"
       y1="6798.3301"
       x2="247.44"
       y2="6803.5298"
       id="line5" />
    <line
       class="cls-1"
       x1="109.42"
       y1="1517.3"
       x2="228.14999"
       y2="1519.89"
       id="line6" />
  </g>
  <path
     class="cls-1"
     d="m 86542.625,-106502.93 -14.83,5281 -17.46,14.66 c 6.023,239.4 -7.525,478.49 -2.84,717.68 l 16.86,18.2 c 0,0 -9,1277.763 -8.95,1308.543 0.05,30.78 29.43,225 29.43,225 l -1.44,648.24 18.52,20.09 c 0,0 -0.24,324.369 -1.21,330.459 -0.52,3.28 -9.44,12.76 -9.47,16.09 -0.05,5.51 0.3,253.46 0.69,338.24 0.1,21.52 10.35,62.77 59,62.68 30.78,0 47.93,-32.22 48.79,-49.59 4.38,-89.32 2.51,-356.12 0.19,-361.82 -1.75,-4.3 -13.77,-8.2 -13.45,-12.83 0.56,-8 4.09,-331.559 4.09,-331.559 l 16.78,-13 -2,-661.47 c 0,0 26.29,-135.41 26.18,-197 -0.11,-61.59 -4.77,-1329.183 -4.77,-1329.183 l 13.06,-16.38 1.6,-171.51 1,-80.17 -0.89,-446.08 -20.88,-24.07 -19.17,-5275 c 0,0 248.093,-1032.47 200.618,-1471.91 -14.1,-14.71 -517.202,-14.63 -615.425,-34.77 -24.511,79 -52.487,1256.98 -52.487,1256.98 126.101,28.2 348.464,238.48 348.464,238.48 z"
     id="path1-1"
     transform="translate(-86433.467,108020.29)"
     style="fill:none;stroke:#000000;stroke-width:20px;stroke-miterlimit:10" />
</svg>
